<svg version="1.0" xmlns="http://www.w3.org/2000/svg"
 width="240.000000pt" height="60.000000pt" viewBox="0 0 240.000000 60.000000">
<g transform="translate(0.000000,60.000000) scale(0.022472,-0.022989)"
fill="#fff" stroke="#fff">
<path d="M2030 1974 c-214 -57 -342 -214 -312 -384 30 -170 143 -255 370 -281
53 -6 111 -15 128 -20 44 -13 75 -50 81 -96 13 -98 -126 -156 -236 -99 -47 25
-52 66 -7 66 12 0 30 6 40 13 28 21 6 51 -61 84 -70 34 -167 38 -221 10 -79
-43 -115 -163 -73 -246 97 -189 409 -258 661 -145 61 27 125 86 153 140 57
111 37 289 -43 386 -48 59 -92 74 -402 143 -124 27 -157 70 -102 134 57 68
241 82 274 20 8 -14 6 -20 -9 -29 -11 -5 -27 -10 -35 -10 -27 0 -19 -46 13
-73 53 -44 190 -44 257 0 81 53 72 207 -17 289 -103 97 -304 139 -459 98z"/>
<path d="M4645 1980 c-47 -10 -75 -29 -86 -57 -9 -24 -4 -200 7 -268 3 -16 7
-192 10 -390 2 -198 6 -370 9 -382 10 -44 44 -55 175 -54 229 2 264 22 263
151 -1 60 -31 146 -56 155 -7 3 -30 -2 -51 -10 -34 -14 -40 -14 -61 -1 -43 29
-85 190 -85 330 0 69 18 94 57 81 31 -11 108 -130 186 -290 63 -126 77 -176
85 -285 l7 -95 40 -20 c31 -16 60 -20 133 -20 85 0 95 2 112 22 15 19 17 36
14 90 -3 38 -6 279 -7 537 -3 447 -4 469 -22 482 -14 10 -55 14 -159 14 -116
0 -148 -4 -182 -19 -23 -10 -45 -25 -49 -32 -13 -21 -8 -91 10 -137 21 -53 42
-65 84 -51 42 15 55 3 81 -75 21 -63 29 -144 16 -165 -35 -56 -144 86 -250
329 -26 58 -56 113 -67 122 -37 31 -152 52 -214 38z"/>
<path d="M5555 1980 c-54 -8 -84 -26 -96 -57 -9 -24 -4 -202 8 -268 2 -16 7
-196 9 -398 2 -224 8 -376 14 -387 19 -35 48 -42 171 -41 182 2 242 19 255 73
18 83 -10 219 -48 233 -8 3 -32 -1 -55 -9 -35 -12 -44 -12 -61 0 -28 19 -58
104 -71 198 -26 183 -4 250 65 202 38 -27 196 -317 228 -419 10 -32 21 -99 25
-150 l6 -92 39 -19 c50 -24 174 -33 216 -16 43 18 50 36 44 116 -3 38 -6 278
-7 533 -3 443 -4 464 -22 477 -14 10 -53 14 -147 14 -202 0 -251 -21 -250
-108 1 -48 29 -120 52 -132 12 -6 29 -6 50 2 29 10 34 9 50 -12 34 -45 64
-178 49 -217 -30 -79 -139 58 -254 317 -25 58 -55 113 -67 122 -35 31 -135 50
-203 38z"/>
<path d="M8462 1974 c-195 -52 -315 -179 -316 -334 0 -194 122 -303 372 -331
53 -6 111 -15 128 -20 44 -14 75 -50 81 -98 5 -36 2 -44 -29 -75 -41 -41 -101
-54 -167 -36 -45 12 -85 44 -78 63 2 6 18 14 36 18 72 15 62 52 -26 96 -120
59 -244 29 -292 -69 -69 -142 47 -297 264 -353 170 -44 404 10 499 115 60 66
79 121 79 220 0 107 -27 184 -87 244 -48 50 -104 70 -321 116 -79 17 -151 38
-165 48 -82 61 24 162 169 162 71 0 133 -47 92 -70 -11 -5 -27 -10 -35 -10
-28 0 -19 -46 14 -73 54 -46 187 -46 256 0 53 34 72 130 41 205 -62 149 -312
237 -515 182z"/>
<path d="M2689 1960 c-61 -32 -77 -97 -54 -215 9 -44 18 -125 21 -180 6 -109
14 -125 66 -125 64 0 166 140 159 218 -1 7 -15 12 -36 12 -44 0 -54 20 -32 65
22 47 76 105 97 105 14 0 19 -11 24 -54 11 -81 -8 -347 -46 -641 -25 -203 -26
-237 -4 -270 24 -37 54 -45 159 -44 112 0 157 14 176 53 12 25 11 45 -8 155
-28 160 -39 346 -37 581 3 240 17 272 80 182 38 -53 44 -129 10 -124 -12 1
-27 -4 -34 -13 -42 -51 99 -190 174 -171 52 13 57 36 57 253 -1 163 -4 200
-16 209 -22 17 -181 25 -465 24 -227 -1 -259 -4 -291 -20z"/>
<path d="M6513 1969 c-152 -18 -175 -45 -167 -199 3 -52 8 -273 12 -491 8
-440 5 -426 76 -448 18 -6 166 -9 351 -8 355 2 369 5 395 67 43 105 -132 389
-225 366 -36 -9 -49 -42 -47 -122 3 -94 -9 -124 -46 -124 -72 0 -227 151 -298
291 -28 56 -30 81 -9 99 37 31 120 -31 170 -126 17 -34 42 -65 58 -74 27 -14
29 -14 56 16 42 46 73 136 79 226 8 126 -23 151 -136 108 -53 -20 -53 -20 -98
-1 -87 39 -194 165 -194 229 0 33 42 55 90 47 49 -8 150 -57 175 -85 17 -19
16 -20 -24 -36 -22 -9 -41 -23 -41 -31 0 -24 89 -56 171 -61 180 -11 308 86
309 233 0 110 -46 127 -360 130 -124 2 -257 -1 -297 -6z"/>
<path d="M7430 1974 c-14 -3 -44 -7 -68 -10 -52 -7 -117 -60 -127 -103 -3 -15
4 -102 17 -192 20 -141 23 -206 23 -471 l0 -306 23 -25 c33 -35 96 -50 191
-46 62 3 86 9 108 25 45 35 38 79 -40 241 -70 146 -75 162 -64 205 16 62 84
41 173 -54 90 -97 149 -208 110 -208 -9 0 -33 9 -53 20 -56 30 -67 27 -60 -17
10 -57 57 -113 128 -152 53 -30 75 -35 144 -39 101 -5 139 10 154 63 19 72 -5
135 -93 245 -90 111 -95 133 -40 175 103 79 150 230 118 381 -32 154 -126 240
-290 264 -65 9 -300 12 -354 4z m138 -145 c71 -24 191 -100 239 -150 18 -19
41 -55 53 -81 18 -42 19 -51 7 -80 -18 -42 -37 -58 -81 -65 -99 -16 -315 177
-357 318 -11 34 -10 42 6 59 23 25 56 25 133 -1z"/>
<path d="M3863 1956 c-174 -43 -276 -151 -338 -361 -23 -75 -27 -110 -28 -215
-2 -301 118 -477 365 -535 177 -42 404 10 510 117 185 184 171 646 -26 864
-105 118 -307 172 -483 130z m90 -149 c77 -33 165 -139 216 -261 75 -181 102
-362 64 -428 -65 -111 -247 -52 -321 103 -34 71 -33 73 23 74 45 0 51 3 64 30
31 62 9 245 -30 245 -5 0 -28 -10 -49 -22 l-39 -23 -28 21 c-56 41 -90 159
-61 214 15 28 71 60 106 60 12 0 37 -6 55 -13z"/>
</g>
</svg>
